<?xml version="1.0" encoding="UTF-8" standalone="no"?>
<!-- Created with Inkscape (http://www.inkscape.org/) -->

<svg
   xmlns:dc="http://purl.org/dc/elements/1.1/"
   xmlns:cc="http://creativecommons.org/ns#"
   xmlns:rdf="http://www.w3.org/1999/02/22-rdf-syntax-ns#"
   xmlns:svg="http://www.w3.org/2000/svg"
   xmlns="http://www.w3.org/2000/svg"
   xmlns:sodipodi="http://sodipodi.sourceforge.net/DTD/sodipodi-0.dtd"
   xmlns:inkscape="http://www.inkscape.org/namespaces/inkscape"
   width="468"
   height="60"
   id="svg4870"
   version="1.1"
   inkscape:version="0.91 r13725"
   viewBox="0 0 468 60"
   sodipodi:docname="poly.svg">
  <defs
     id="defs4872" />
  <sodipodi:namedview
     id="base"
     pagecolor="#ffffff"
     bordercolor="#666666"
     borderopacity="1.0"
     inkscape:pageopacity="0.0"
     inkscape:pageshadow="2"
     inkscape:zoom="1.2"
     inkscape:cx="355.1277"
     inkscape:cy="-103.33333"
     inkscape:document-units="px"
     inkscape:current-layer="layer1"
     showgrid="false"
     inkscape:window-width="1440"
     inkscape:window-height="781"
     inkscape:window-x="0"
     inkscape:window-y="1"
     inkscape:window-maximized="1" />
  <metadata
     id="metadata4875">
    <rdf:RDF>
      <cc:Work
         rdf:about="">
        <dc:format>image/svg+xml</dc:format>
        <dc:type
           rdf:resource="http://purl.org/dc/dcmitype/StillImage" />
        <dc:title />
      </cc:Work>
    </rdf:RDF>
  </metadata>
  <g
     id="layer1"
     inkscape:label="Layer 1"
     inkscape:groupmode="layer">
    <text
       xml:space="preserve"
       style="font-style:normal;font-weight:normal;font-size:25px;line-height:125%;font-family:sans-serif;letter-spacing:0px;word-spacing:0px;fill:#000000;fill-opacity:1;stroke:none;stroke-width:1px;stroke-linecap:butt;stroke-linejoin:miter;stroke-opacity:1"
       x="-316.74927"
       y="16.20635"
       id="text5755"
       sodipodi:linespacing="125%"><tspan
         sodipodi:role="line"
         id="tspan5757"
         x="-316.74927"
         y="16.20635" /></text>
    <text
       xml:space="preserve"
       style="font-style:normal;font-variant:normal;font-weight:normal;font-stretch:normal;font-size:37.5px;line-height:1.25;font-family:Roundo;-inkscape-font-specification:Roundo;letter-spacing:0px;word-spacing:0px;fill:#000000;fill-opacity:1;stroke:none;stroke-width:0.26458332"
       x="-1280.5914"
       y="-164.23039"
       id="text819"><tspan
         sodipodi:role="line"
         id="tspan817"
         x="-1280.5914"
         y="-164.23039"
         style="fill:#ffffff;stroke-width:0.26458332" /></text>
    <g
       style="font-style:normal;font-variant:normal;font-weight:300;font-stretch:normal;font-size:24.14767647px;line-height:125%;font-family:Roundo;-inkscape-font-specification:'Roundo Light';letter-spacing:0px;word-spacing:0px;fill:#ffffff;fill-opacity:1;stroke:none;stroke-width:0.26458332px;stroke-linecap:butt;stroke-linejoin:miter;stroke-opacity:1"
       id="text12-0-7-3"
       transform="translate(-10,0)">
      <path
         d="m 87.506768,9.6978011 0,39.8726449 1.738633,0 0,-15.821558 12.981789,0 c 7.82385,0 13.61929,-3.998856 13.61929,-11.880658 0,-8.403391 -5.79544,-12.1704289 -13.61929,-12.1704289 l -14.720422,0 z m 14.720422,1.6227239 c 6.89658,0 11.88066,3.071585 11.88066,10.547705 0,6.954532 -5.04204,10.257934 -11.88066,10.257934 l -12.981789,0 0,-20.805639 12.981789,0 z"
         style="font-style:normal;font-variant:normal;font-weight:300;font-stretch:normal;font-size:57.95442581px;line-height:153.29998732%;font-family:Roundo;-inkscape-font-specification:'Roundo Light';fill:#ffffff;stroke-width:0.26458332px"
         id="path5584"
         inkscape:connector-curvature="0" />
      <path
         d="m 175.11756,9.6978011 0,39.8726449 26.13745,0 0,-1.622724 -24.39882,0 0,-38.2499209 -1.73863,0 z"
         style="font-style:normal;font-variant:normal;font-weight:300;font-stretch:normal;font-size:57.95442581px;line-height:153.29998732%;font-family:Roundo;-inkscape-font-specification:'Roundo Light';fill:#ffffff;stroke-width:0.26458332px"
         id="path5586"
         inkscape:connector-curvature="0" />
      <path
         d="m 219.75515,32.589799 15.35792,-22.8919979 -1.9125,0 -14.31474,21.2113199 -14.31474,-21.2113199 -1.9125,0 15.35793,22.8919979 0,16.980647 1.73863,0 0,-16.980647 z"
         style="font-style:normal;font-variant:normal;font-weight:300;font-stretch:normal;font-size:57.95442581px;line-height:153.29998732%;font-family:Roundo;-inkscape-font-specification:'Roundo Light';fill:#ffffff;stroke-width:0.26458332px"
         id="path5588"
         inkscape:connector-curvature="0" />
      <path
         d="m 259.7618,48.527266 c -11.12725,0 -18.89314,-7.823847 -18.89314,-18.835188 0,-11.12725 7.76589,-18.951097 18.89314,-18.951097 5.91135,0 10.60566,2.086359 14.19884,4.578399 l 0,-2.086359 c -3.76704,-2.434086 -8.40339,-4.1147642 -14.19884,-4.1147642 -12.05452,0 -20.63177,8.4613462 -20.63177,20.5738212 0,11.996566 8.57725,20.457912 20.63177,20.457912 5.79545,0 10.4318,-1.680678 14.19884,-4.114764 l 0,-17.270419 -17.96587,0 0,1.622724 16.22723,0 0,14.66247 c -3.3034,1.97045 -7.47612,3.477265 -12.4602,3.477265 z"
         style="font-style:normal;font-variant:normal;font-weight:300;font-stretch:normal;font-size:57.95442581px;line-height:153.29998732%;font-family:Roundo;-inkscape-font-specification:'Roundo Light';fill:#ffffff;stroke-width:0.26458332px"
         id="path5590"
         inkscape:connector-curvature="0" />
      <path
         d="m 284.34806,9.6978011 0,39.8726449 26.13745,0 0,-1.622724 -24.39882,0 0,-17.849963 21.5011,0 0,-1.622724 -21.5011,0 0,-17.15451 24.39882,0 0,-1.6227239 -26.13745,0 z"
         style="font-style:normal;font-variant:normal;font-weight:300;font-stretch:normal;font-size:57.95442581px;line-height:153.29998732%;font-family:Roundo;-inkscape-font-specification:'Roundo Light';fill:#ffffff;stroke-width:0.26458332px"
         id="path5592"
         inkscape:connector-curvature="0" />
      <path
         d="m 319.66404,9.6978011 0,39.8726449 1.73863,0 0,-39.8726449 -1.73863,0 z"
         style="font-style:normal;font-variant:normal;font-weight:300;font-stretch:normal;font-size:57.95442581px;line-height:153.29998732%;font-family:Roundo;-inkscape-font-specification:'Roundo Light';fill:#ffffff;stroke-width:0.26458332px"
         id="path5594"
         inkscape:connector-curvature="0" />
      <path
         d="m 355.67005,40.471601 c 0,4.752263 -3.36136,8.055665 -10.54771,8.055665 -5.85339,0 -11.06929,-2.318177 -14.54656,-4.636354 l 0,1.912496 c 3.59318,2.376132 8.98294,4.346582 14.72043,4.346582 7.01248,0 12.11247,-3.303402 12.11247,-9.678389 0,-6.374987 -3.76704,-8.461346 -11.01134,-10.953386 L 342.05076,28.0114 c -5.33181,-1.854542 -9.62044,-3.593175 -9.62044,-9.098845 0,-4.5784 3.65113,-8.171574 10.77953,-8.171574 5.62158,0 10.08407,2.318177 12.57611,4.230673 l 0,-2.08636 c -2.31818,-1.854541 -6.95453,-3.7670372 -12.57611,-3.7670372 -6.83863,0 -12.51816,3.3613562 -12.51816,9.9102072 0,6.259078 4.98408,8.461346 9.7943,10.142024 l 5.50567,1.912496 c 6.43294,2.202268 9.67839,4.172719 9.67839,9.388617 z"
         style="font-style:normal;font-variant:normal;font-weight:300;font-stretch:normal;font-size:57.95442581px;line-height:153.29998732%;font-family:Roundo;-inkscape-font-specification:'Roundo Light';fill:#ffffff;stroke-width:0.26458332px"
         id="path5596"
         inkscape:connector-curvature="0" />
      <path
         d="m 361.13315,11.320525 14.66247,0 0,38.249921 1.73863,0 0,-38.249921 14.66247,0 0,-1.6227239 -31.06357,0 0,1.6227239 z"
         style="font-style:normal;font-variant:normal;font-weight:300;font-stretch:normal;font-size:57.95442581px;line-height:153.29998732%;font-family:Roundo;-inkscape-font-specification:'Roundo Light';fill:#ffffff;stroke-width:0.26458332px"
         id="path5598"
         inkscape:connector-curvature="0" />
    </g>
    <circle
       style="opacity:1;fill:none;fill-opacity:1;stroke:#ffffff;stroke-width:1.14083517;stroke-miterlimit:4;stroke-dasharray:none;stroke-opacity:1"
       id="path14-1-3-2"
       cx="133.4308"
       cy="29.634106"
       r="20.535032"
       inkscape:export-xdpi="299.95709"
       inkscape:export-ydpi="299.95709" />
    <path
       style="fill:none;fill-opacity:0.18090455;stroke:#ffffff;stroke-width:0.60369188px;stroke-linecap:butt;stroke-linejoin:miter;stroke-opacity:1"
       d="m 118.08752,17.506953 18.15331,-7.29479 4.03235,34.76275 z"
       id="path4603-6"
       inkscape:connector-curvature="0"
       inkscape:export-xdpi="299.95709"
       inkscape:export-ydpi="299.95709" />
    <path
       style="fill:none;fill-opacity:0.160804;stroke:#ffffff;stroke-width:0.60369188px;stroke-linecap:butt;stroke-linejoin:miter;stroke-opacity:1"
       d="m 114.96909,36.821043 3.11843,-19.31409 31.8581,14.48348 z"
       id="path4603-0-7-9"
       inkscape:connector-curvature="0"
       inkscape:export-xdpi="299.95709"
       inkscape:export-ydpi="299.95709" />
    <path
       style="fill:none;fill-opacity:0.21608043;stroke:#ffffff;stroke-width:0.60369188px;stroke-linecap:butt;stroke-linejoin:miter;stroke-opacity:1"
       d="m 130.3609,49.213363 -15.18349,-12.33776 28.4454,-20.38554 z"
       id="path4603-0-7-5-4"
       inkscape:connector-curvature="0"
       inkscape:export-xdpi="299.95709"
       inkscape:export-ydpi="299.95709" />
    <path
       style="fill:none;fill-opacity:0.27638191;stroke:#ffffff;stroke-width:0.60369188px;stroke-linecap:butt;stroke-linejoin:miter;stroke-opacity:1"
       d="m 148.85675,41.609083 -18.13426,7.34217 -4.123,-34.75215 z"
       id="path4603-0-7-5-6-3"
       inkscape:connector-curvature="0"
       inkscape:export-xdpi="299.95709"
       inkscape:export-ydpi="299.95709" />
    <path
       style="fill:none;fill-opacity:0.20603015;stroke:#ffffff;stroke-width:0.60369188px;stroke-linecap:butt;stroke-linejoin:miter;stroke-opacity:1"
       d="m 151.84911,22.275053 -2.99236,19.33403 -31.9519,-14.27541 z"
       id="path4603-0-7-5-6-0-1"
       inkscape:connector-curvature="0"
       inkscape:export-xdpi="299.95709"
       inkscape:export-ydpi="299.95709" />
    <path
       style="fill:none;fill-opacity:0.18090455;stroke:#ffffff;stroke-width:0.60369188px;stroke-linecap:butt;stroke-linejoin:miter;stroke-opacity:1"
       d="M 136.23394,9.9744527 151.5826,22.106123 123.41497,42.873743 Z"
       id="path4603-0-7-5-6-0-7-7"
       inkscape:connector-curvature="0"
       inkscape:export-xdpi="299.95709"
       inkscape:export-ydpi="299.95709" />
    <text
       xml:space="preserve"
       style="font-style:normal;font-variant:normal;font-weight:300;font-stretch:normal;font-size:13.75px;line-height:125%;font-family:Roundo;-inkscape-font-specification:'Roundo Light';letter-spacing:0px;word-spacing:0px;fill:#000000;fill-opacity:1;stroke:none;stroke-width:1px;stroke-linecap:butt;stroke-linejoin:miter;stroke-opacity:1"
       x="-248.68997"
       y="529.59485"
       id="text5129"
       sodipodi:linespacing="125%"><tspan
         sodipodi:role="line"
         id="tspan5131"
         x="-248.68997"
         y="529.59485"
         style="font-style:normal;font-variant:normal;font-weight:300;font-stretch:normal;font-size:13.75px;font-family:Roundo;-inkscape-font-specification:'Roundo Light';fill:#ffffff">contact@polygei.st</tspan></text>
  </g>
</svg>
